<?xml version="1.0" standalone="no"?><!-- Generator: Gravit.io --><svg xmlns="http://www.w3.org/2000/svg" xmlns:xlink="http://www.w3.org/1999/xlink" style="isolation:isolate" viewBox="0 0 500 500" width="500" height="500"><defs><clipPath id="_clipPath_RatXylRPwEiQa5SoGKsPEs3wwff3OubF"><rect width="500" height="500"/></clipPath></defs><g clip-path="url(#_clipPath_RatXylRPwEiQa5SoGKsPEs3wwff3OubF)"><g><path d=" M 327.53 485.28 L 61.889 485.28 C 46.678 485.28 34.19 472.445 34.19 456.547 L 34.19 64.767 C 34.19 48.987 46.564 36.034 61.889 36.034 L 293.587 36.152 L 292.565 21.432 L 61.889 21.314 C 38.845 21.314 20 40.744 20 64.767 L 20 456.547 C 20 480.452 38.731 500 61.889 500 L 346.942 500 C 351.369 500 355.57 499.293 359.656 497.88 C 348.316 495.673 337.441 491.408 327.53 485.28 Z  M 346.828 21.432 L 292.565 21.432 L 292.565 36.152 L 346.828 36.152 C 362.04 36.152 374.528 48.987 374.528 64.885 L 374.528 283.797 C 376.344 283.679 378.16 283.679 379.977 283.679 C 382.928 283.679 385.88 283.797 388.718 284.032 L 388.718 64.767 C 388.718 40.862 369.987 21.432 346.828 21.432 L 346.828 21.432 Z " fill="rgb(0,170,211)"/><path d=" M 362.381 282.148 L 362.381 70.066 C 362.381 58.29 353.186 48.752 341.833 48.752 L 293.587 48.752 L 293.587 56.053 C 293.587 64.178 287.23 70.772 279.397 70.772 L 129.321 70.772 C 121.488 70.772 115.131 64.178 115.131 56.053 L 115.131 48.752 L 66.884 48.752 C 55.532 48.752 46.337 58.29 46.337 70.066 L 46.337 451.484 C 46.337 463.26 55.532 472.798 66.884 472.798 L 308.799 472.798 C 285.981 451.602 273.607 426.048 273.607 391.78 C 273.494 341.498 306.755 288.625 362.381 282.148 L 362.381 282.148 Z  M 88.453 127.179 L 320.151 127.179 C 324.124 127.179 327.303 130.476 327.303 134.597 C 327.303 138.719 324.124 142.016 320.151 142.016 L 88.453 142.016 C 84.48 142.016 81.302 138.719 81.302 134.597 C 81.362 130.526 84.529 127.242 88.453 127.179 L 88.453 127.179 Z  M 88.453 211.258 L 320.151 211.258 C 324.124 211.258 327.303 214.555 327.303 218.676 C 327.303 222.798 324.124 226.095 320.151 226.095 L 88.453 226.095 C 84.48 226.095 81.302 222.798 81.302 218.676 C 81.362 214.606 84.529 211.321 88.453 211.258 L 88.453 211.258 Z  M 238.415 394.253 L 88.567 394.253 C 84.594 394.253 81.415 390.956 81.415 386.835 C 81.415 382.713 84.594 379.416 88.567 379.416 L 238.415 379.416 C 242.389 379.416 245.567 382.713 245.567 386.835 C 245.506 390.905 242.34 394.19 238.415 394.253 L 238.415 394.253 Z  M 267.931 310.174 L 88.453 310.174 C 84.48 310.174 81.302 306.877 81.302 302.756 C 81.302 298.634 84.48 295.337 88.453 295.337 L 267.931 295.337 C 271.904 295.337 275.083 298.634 275.083 302.756 C 275.083 306.877 271.904 310.174 267.931 310.174 Z " fill="rgb(232,57,57)"/><ellipse vector-effect="non-scaling-stroke" cx="379.97671316699007" cy="389.1919384334044" rx="91.70662057037248" ry="93.85515086863757" fill="rgb(0,170,211)"/></g><path d=" M 440 352.9 C 440 342.492 430.733 334 419.375 334 C 408.018 334 398.75 342.492 398.75 352.9 C 398.75 360.901 404.229 367.718 411.881 370.477 C 409.248 380.513 397.994 383.638 380.999 387.474 C 373.209 389.251 364.533 391.242 357.5 394.908 L 357.5 370.641 C 365.475 368.033 371.25 361.096 371.25 352.9 C 371.25 342.492 361.983 334 350.625 334 C 339.268 334 330 342.492 330 352.9 C 330.036 360.881 335.539 367.981 343.75 370.641 L 343.75 423.359 C 335.775 425.967 330 432.904 330 441.1 C 330 451.508 339.268 460 350.625 460 C 361.983 460 371.25 451.508 371.25 441.1 C 371.214 433.119 365.711 426.019 357.5 423.359 L 357.5 415.9 C 357.5 406.746 365.668 403.943 384.299 399.709 C 400.661 395.992 422.572 390.996 425.796 370.767 C 434.241 368.242 439.967 361.04 440 352.9 Z  M 350.625 447.4 C 346.844 447.4 343.75 444.565 343.75 441.1 C 343.75 437.635 346.844 434.8 350.625 434.8 C 354.406 434.8 357.5 437.635 357.5 441.1 C 357.5 444.565 354.406 447.4 350.625 447.4 Z  M 350.625 346.6 C 354.406 346.6 357.5 349.435 357.5 352.9 C 357.5 356.365 354.406 359.2 350.625 359.2 C 346.844 359.2 343.75 356.365 343.75 352.9 C 343.75 349.435 346.844 346.6 350.625 346.6 Z  M 419.375 359.2 C 415.594 359.2 412.5 356.365 412.5 352.9 C 412.5 349.435 415.594 346.6 419.375 346.6 C 423.156 346.6 426.25 349.435 426.25 352.9 C 426.25 356.365 423.156 359.2 419.375 359.2 Z " fill="rgb(232,57,57)"/></g></svg>